<svg xmlns="http://www.w3.org/2000/svg" version="1.1" xmlns:xlink="http://www.w3.org/1999/xlink" xmlns:svgjs="http://svgjs.dev/svgjs" viewBox="0 0 800 800" opacity="1" width="800" height="800"><g stroke-width="0.75" stroke="#3180f6" fill="none"><circle r="0.8157894736842105" cx="0" cy="0" fill="#3180f6" stroke="none"></circle><circle r="0.8157894736842105" cx="114.28571428571429" cy="0" fill="#3180f6" stroke="none"></circle><circle r="0.8157894736842105" cx="228.57142857142858" cy="0" fill="#3180f6" stroke="none"></circle><circle r="0.8157894736842105" cx="342.8571428571429" cy="0" fill="#3180f6" stroke="none"></circle><circle r="0.8157894736842105" cx="457.14285714285717" cy="0" fill="#3180f6" stroke="none"></circle><circle r="0.8157894736842105" cx="571.4285714285714" cy="0" fill="#3180f6" stroke="none"></circle><circle r="0.8157894736842105" cx="685.7142857142858" cy="0" fill="#3180f6" stroke="none"></circle><circle r="0.8157894736842105" cx="800.0000000000001" cy="0" fill="#3180f6" stroke="none"></circle><circle r="0.8157894736842105" cx="0" cy="114.28571428571429" fill="#3180f6" stroke="none"></circle><circle r="0.8157894736842105" cx="114.28571428571429" cy="114.28571428571429" fill="#3180f6" stroke="none"></circle><circle r="0.8157894736842105" cx="228.57142857142858" cy="114.28571428571429" fill="#3180f6" stroke="none"></circle><circle r="0.8157894736842105" cx="342.8571428571429" cy="114.28571428571429" fill="#3180f6" stroke="none"></circle><circle r="0.8157894736842105" cx="457.14285714285717" cy="114.28571428571429" fill="#3180f6" stroke="none"></circle><circle r="0.8157894736842105" cx="571.4285714285714" cy="114.28571428571429" fill="#3180f6" stroke="none"></circle><circle r="0.8157894736842105" cx="685.7142857142858" cy="114.28571428571429" fill="#3180f6" stroke="none"></circle><circle r="0.8157894736842105" cx="800.0000000000001" cy="114.28571428571429" fill="#3180f6" stroke="none"></circle><circle r="0.8157894736842105" cx="0" cy="228.57142857142858" fill="#3180f6" stroke="none"></circle><circle r="0.8157894736842105" cx="114.28571428571429" cy="228.57142857142858" fill="#3180f6" stroke="none"></circle><circle r="0.8157894736842105" cx="228.57142857142858" cy="228.57142857142858" fill="#3180f6" stroke="none"></circle><circle r="0.8157894736842105" cx="342.8571428571429" cy="228.57142857142858" fill="#3180f6" stroke="none"></circle><circle r="0.8157894736842105" cx="457.14285714285717" cy="228.57142857142858" fill="#3180f6" stroke="none"></circle><circle r="0.8157894736842105" cx="571.4285714285714" cy="228.57142857142858" fill="#3180f6" stroke="none"></circle><circle r="0.8157894736842105" cx="685.7142857142858" cy="228.57142857142858" fill="#3180f6" stroke="none"></circle><circle r="0.8157894736842105" cx="800.0000000000001" cy="228.57142857142858" fill="#3180f6" stroke="none"></circle><circle r="0.8157894736842105" cx="0" cy="342.8571428571429" fill="#3180f6" stroke="none"></circle><circle r="0.8157894736842105" cx="114.28571428571429" cy="342.8571428571429" fill="#3180f6" stroke="none"></circle><circle r="0.8157894736842105" cx="228.57142857142858" cy="342.8571428571429" fill="#3180f6" stroke="none"></circle><circle r="0.8157894736842105" cx="342.8571428571429" cy="342.8571428571429" fill="#3180f6" stroke="none"></circle><circle r="0.8157894736842105" cx="457.14285714285717" cy="342.8571428571429" fill="#3180f6" stroke="none"></circle><circle r="0.8157894736842105" cx="571.4285714285714" cy="342.8571428571429" fill="#3180f6" stroke="none"></circle><circle r="0.8157894736842105" cx="685.7142857142858" cy="342.8571428571429" fill="#3180f6" stroke="none"></circle><circle r="0.8157894736842105" cx="800.0000000000001" cy="342.8571428571429" fill="#3180f6" stroke="none"></circle><circle r="0.8157894736842105" cx="0" cy="457.14285714285717" fill="#3180f6" stroke="none"></circle><circle r="0.8157894736842105" cx="114.28571428571429" cy="457.14285714285717" fill="#3180f6" stroke="none"></circle><circle r="0.8157894736842105" cx="228.57142857142858" cy="457.14285714285717" fill="#3180f6" stroke="none"></circle><circle r="0.8157894736842105" cx="342.8571428571429" cy="457.14285714285717" fill="#3180f6" stroke="none"></circle><circle r="0.8157894736842105" cx="457.14285714285717" cy="457.14285714285717" fill="#3180f6" stroke="none"></circle><circle r="0.8157894736842105" cx="571.4285714285714" cy="457.14285714285717" fill="#3180f6" stroke="none"></circle><circle r="0.8157894736842105" cx="685.7142857142858" cy="457.14285714285717" fill="#3180f6" stroke="none"></circle><circle r="0.8157894736842105" cx="800.0000000000001" cy="457.14285714285717" fill="#3180f6" stroke="none"></circle><circle r="0.8157894736842105" cx="0" cy="571.4285714285714" fill="#3180f6" stroke="none"></circle><circle r="0.8157894736842105" cx="114.28571428571429" cy="571.4285714285714" fill="#3180f6" stroke="none"></circle><circle r="0.8157894736842105" cx="228.57142857142858" cy="571.4285714285714" fill="#3180f6" stroke="none"></circle><circle r="0.8157894736842105" cx="342.8571428571429" cy="571.4285714285714" fill="#3180f6" stroke="none"></circle><circle r="0.8157894736842105" cx="457.14285714285717" cy="571.4285714285714" fill="#3180f6" stroke="none"></circle><circle r="0.8157894736842105" cx="571.4285714285714" cy="571.4285714285714" fill="#3180f6" stroke="none"></circle><circle r="0.8157894736842105" cx="685.7142857142858" cy="571.4285714285714" fill="#3180f6" stroke="none"></circle><circle r="0.8157894736842105" cx="800.0000000000001" cy="571.4285714285714" fill="#3180f6" stroke="none"></circle><circle r="0.8157894736842105" cx="0" cy="685.7142857142858" fill="#3180f6" stroke="none"></circle><circle r="0.8157894736842105" cx="114.28571428571429" cy="685.7142857142858" fill="#3180f6" stroke="none"></circle><circle r="0.8157894736842105" cx="228.57142857142858" cy="685.7142857142858" fill="#3180f6" stroke="none"></circle><circle r="0.8157894736842105" cx="342.8571428571429" cy="685.7142857142858" fill="#3180f6" stroke="none"></circle><circle r="0.8157894736842105" cx="457.14285714285717" cy="685.7142857142858" fill="#3180f6" stroke="none"></circle><circle r="0.8157894736842105" cx="571.4285714285714" cy="685.7142857142858" fill="#3180f6" stroke="none"></circle><circle r="0.8157894736842105" cx="685.7142857142858" cy="685.7142857142858" fill="#3180f6" stroke="none"></circle><circle r="0.8157894736842105" cx="800.0000000000001" cy="685.7142857142858" fill="#3180f6" stroke="none"></circle><circle r="0.8157894736842105" cx="0" cy="800.0000000000001" fill="#3180f6" stroke="none"></circle><circle r="0.8157894736842105" cx="114.28571428571429" cy="800.0000000000001" fill="#3180f6" stroke="none"></circle><circle r="0.8157894736842105" cx="228.57142857142858" cy="800.0000000000001" fill="#3180f6" stroke="none"></circle><circle r="0.8157894736842105" cx="342.8571428571429" cy="800.0000000000001" fill="#3180f6" stroke="none"></circle><circle r="0.8157894736842105" cx="457.14285714285717" cy="800.0000000000001" fill="#3180f6" stroke="none"></circle><circle r="0.8157894736842105" cx="571.4285714285714" cy="800.0000000000001" fill="#3180f6" stroke="none"></circle><circle r="0.8157894736842105" cx="685.7142857142858" cy="800.0000000000001" fill="#3180f6" stroke="none"></circle><circle r="0.8157894736842105" cx="800.0000000000001" cy="800.0000000000001" fill="#3180f6" stroke="none"></circle></g></svg>